<svg width="30" height="24" viewBox="0 0 30 24" fill="none" xmlns="http://www.w3.org/2000/svg">
<path d="M8.31461 12.2636C9.64108 12.2636 10.6757 12.7953 11.4185 13.8586C12.2144 14.866 12.6124 16.1253 12.6124 17.6364C12.6124 19.2595 12.0818 20.6027 11.0206 21.666C9.95943 22.6734 8.63296 23.1772 7.0412 23.1772C5.2372 23.1772 3.75157 22.4776 2.58427 21.0784C1.41697 19.6793 0.833336 17.8603 0.833336 15.6217C0.833336 12.4874 1.7884 9.63312 3.6985 7.05864C5.60862 4.48416 8.44725 2.30145 12.2144 0.510498V2.60926C9.98595 3.67264 8.07585 5.07181 6.48408 6.80679C4.89233 8.48581 4.09644 10.1648 4.09644 11.8438C4.09644 12.9631 4.38826 13.5229 4.97192 13.5229C5.07802 13.5229 5.21068 13.4948 5.36986 13.4389C5.52903 13.3269 5.68821 13.2431 5.84739 13.187C6.64326 12.5714 7.46567 12.2636 8.31461 12.2636ZM24.8689 12.2636C26.1954 12.2636 27.2301 12.7953 27.9728 13.8586C28.7687 14.866 29.1667 16.1253 29.1667 17.6364C29.1667 19.2595 28.6361 20.6027 27.5749 21.666C26.5137 22.6734 25.1873 23.1772 23.5955 23.1772C21.7915 23.1772 20.3058 22.4776 19.1385 21.0784C17.9713 19.6793 17.3877 17.8603 17.3877 15.6217C17.3877 12.4874 18.3428 9.63312 20.2529 7.05864C22.163 4.48416 25.0015 2.30145 28.7687 0.510498V2.60926C26.5403 3.67264 24.6302 5.07181 23.0385 6.80679C21.4467 8.48581 20.6508 10.1648 20.6508 11.8438C20.6508 12.9631 20.9426 13.5229 21.5262 13.5229C21.6323 13.5229 21.765 13.4948 21.9241 13.4389C22.0833 13.3269 22.2426 13.2431 22.4017 13.187C23.1975 12.5714 24.0199 12.2636 24.8689 12.2636Z" fill="#FF6D2C"/>
</svg>
