<svg width="33" height="27" viewBox="0 0 33 27" fill="none" xmlns="http://www.w3.org/2000/svg">
<g filter="url(#filter0_d_1_205)">
<path d="M27.0721 5.57202C27.089 5.80534 27.089 6.03872 27.089 6.27204C27.089 13.3887 21.5899 21.5887 11.539 21.5887C8.44257 21.5887 5.56609 20.7054 3.14645 19.172C3.5864 19.222 4.00937 19.2387 4.46625 19.2387C7.02121 19.2387 9.3732 18.3887 11.2514 16.9387C8.84867 16.8887 6.83512 15.3387 6.14136 13.2054C6.4798 13.2554 6.81819 13.2887 7.17355 13.2887C7.66423 13.2887 8.15496 13.222 8.61179 13.1054C6.10756 12.6054 4.22932 10.4387 4.22932 7.82202V7.75538C4.95688 8.15538 5.80297 8.40537 6.69969 8.4387C5.22761 7.472 4.26317 5.82201 4.26317 3.95533C4.26317 2.95536 4.53385 2.03869 5.00765 1.23868C7.69804 4.50534 11.7421 6.63864 16.2767 6.87201C16.1922 6.47201 16.1414 6.05538 16.1414 5.63872C16.1414 2.67201 18.5779 0.255371 21.6067 0.255371C23.1803 0.255371 24.6017 0.905371 25.5999 1.95537C26.8351 1.72205 28.0195 1.27202 29.0686 0.655371C28.6625 1.9054 27.7995 2.9554 26.6659 3.62202C27.7658 3.50541 28.8318 3.20534 29.8131 2.78872C29.0687 3.85534 28.1381 4.8053 27.0721 5.57202Z" fill="black"/>
</g>
<defs>
<filter id="filter0_d_1_205" x="-0.853546" y="0.255371" width="34.6667" height="29.3335" filterUnits="userSpaceOnUse" color-interpolation-filters="sRGB">
<feFlood flood-opacity="0" result="BackgroundImageFix"/>
<feColorMatrix in="SourceAlpha" type="matrix" values="0 0 0 0 0 0 0 0 0 0 0 0 0 0 0 0 0 0 127 0" result="hardAlpha"/>
<feOffset dy="4"/>
<feGaussianBlur stdDeviation="2"/>
<feComposite in2="hardAlpha" operator="out"/>
<feColorMatrix type="matrix" values="0 0 0 0 0 0 0 0 0 0 0 0 0 0 0 0 0 0 0.25 0"/>
<feBlend mode="normal" in2="BackgroundImageFix" result="effect1_dropShadow_1_205"/>
<feBlend mode="normal" in="SourceGraphic" in2="effect1_dropShadow_1_205" result="shape"/>
</filter>
</defs>
</svg>
